<svg width="108" height="36" viewBox="0 0 108 36" fill="none" xmlns="http://www.w3.org/2000/svg">
<rect width="108" height="36" rx="5" fill="white"/>
<rect x="0.5" y="0.5" width="107" height="35" rx="4.5" stroke="#808080" stroke-opacity="0.2"/>
<path d="M51.8526 22.65C52.3026 22.254 52.7526 21.84 53.1666 21.426C53.5806 21.012 54.1206 20.4 54.8226 19.59C56.2086 17.97 57.1446 16.08 57.1446 14.442C57.1446 13.578 56.8386 12.822 56.2446 12.192C55.6506 11.562 54.7866 11.256 53.6886 11.256C52.0506 11.256 50.6646 12.03 50.1606 13.488C50.1426 13.614 50.1246 13.686 50.1246 13.74C50.1246 14.154 50.3946 14.46 50.8446 14.46C51.1866 14.46 51.4206 14.298 51.5646 13.992C51.9606 13.128 52.6266 12.696 53.5626 12.696C54.8766 12.696 55.6146 13.56 55.6146 14.73C55.6146 15.684 55.0206 16.962 54.3726 17.952C54.0306 18.438 53.5986 18.996 53.0586 19.626C52.5006 20.256 52.0506 20.76 51.6906 21.138C51.3126 21.516 50.8626 21.966 50.3046 22.506C49.9806 22.83 49.8186 23.1 49.8186 23.334C49.8186 23.712 50.1066 24 50.5926 24H56.9826C57.3606 24 57.6666 23.694 57.6666 23.316C57.6666 22.956 57.3606 22.65 56.9826 22.65H51.8526Z" fill="#292929"/>
<path d="M0 5C0 2.23858 2.23858 0 5 0H36V36H5C2.23858 36 0 33.7614 0 31V5Z" fill="white"/>
<path d="M0.5 5C0.5 2.51472 2.51472 0.5 5 0.5H35.5V35.5H5C2.51472 35.5 0.5 33.4853 0.5 31V5Z" stroke="#808080" stroke-opacity="0.2"/>
<path d="M72 0H103C105.761 0 108 2.23858 108 5V31C108 33.7614 105.761 36 103 36H72V0Z" fill="white"/>
<path d="M72.5 0.5H103C105.485 0.5 107.5 2.51472 107.5 5V31C107.5 33.4853 105.485 35.5 103 35.5H72.5V0.5Z" stroke="#808080" stroke-opacity="0.2"/>
<path d="M23.8327 18H12.166" stroke="#292929" stroke-linecap="round" stroke-linejoin="round"/>
<path d="M95.8327 18H84.166" stroke="#292929" stroke-linecap="round" stroke-linejoin="round"/>
<path d="M90 12.1667V23.8334" stroke="#292929" stroke-linecap="round" stroke-linejoin="round"/>
</svg>
